<?xml version="1.0" encoding="utf-8"?>
<!-- Generator: Adobe Illustrator 16.0.0, SVG Export Plug-In . SVG Version: 6.00 Build 0)  -->
<!DOCTYPE svg PUBLIC "-//W3C//DTD SVG 1.1//EN" "http://www.w3.org/Graphics/SVG/1.1/DTD/svg11.dtd">
<svg version="1.1" id="Layer_1" xmlns="http://www.w3.org/2000/svg" xmlns:xlink="http://www.w3.org/1999/xlink" x="0px" y="0px"
	 width="670.139px" height="315.973px" viewBox="0 0 670.139 315.973" enable-background="new 0 0 670.139 315.973"
	 xml:space="preserve">
<g>
	<path fill="#FCB24D" d="M245.731,233.09c0,11.533-2.118,21.465-6.35,29.801c-4.235,8.337-9.889,15.422-16.967,21.258
		c-7.079,5.835-15.234,10.596-24.463,14.275c-9.232,3.683-18.841,6.564-28.834,8.648s-20.022,3.471-30.084,4.168
		c-10.064,0.693-19.466,1.042-28.21,1.042c-8.607,0-17.524-0.312-26.752-0.938c-9.232-0.626-18.425-1.703-27.585-3.23
		c-9.161-1.526-18.185-3.575-27.065-6.147c-8.884-2.569-17.28-5.8-25.191-9.691L3.812,23.855c7.771-3.194,16.031-6.076,24.775-8.648
		c8.744-2.569,17.661-4.722,26.753-6.46c9.089-1.736,18.145-3.055,27.169-3.96c9.021-0.902,17.765-1.354,26.232-1.354
		c9.854,0,19.811,0.625,29.876,1.875c10.062,1.25,19.742,3.334,29.042,6.252c9.297,2.918,17.973,6.705,26.024,11.358
		c8.048,4.657,15.094,10.388,21.131,17.193c6.038,6.809,10.754,14.728,14.157,23.758c3.399,9.033,5.101,19.453,5.101,31.26
		c0,7.782-1.113,15.076-3.331,21.882c-2.222,6.809-5.413,12.921-9.577,18.339c-4.164,5.418-9.232,10.039-15.198,13.859
		c-5.969,3.823-12.7,6.636-20.195,8.44c9.021,2.364,17.244,5.836,24.671,10.42c7.423,4.585,13.741,10.144,18.945,16.672
		c5.205,6.533,9.229,13.895,12.075,22.092C244.307,215.031,245.731,223.783,245.731,233.09z M110.406,182.24
		c-4.027,0-7.911,0.416-11.659,1.25l-0.833,47.516c2.082,0.417,4.128,0.801,6.142,1.146c2.01,0.348,3.988,0.521,5.934,0.521
		c2.915,0,6.106-0.312,9.577-0.938c3.468-0.626,6.73-1.876,9.785-3.751c3.051-1.876,5.585-4.409,7.599-7.607
		c2.01-3.193,3.019-7.43,3.019-12.712c0-5.278-1.008-9.587-3.019-12.921c-2.014-3.334-4.476-5.939-7.391-7.814
		c-2.915-1.877-6.109-3.127-9.577-3.752C116.512,182.553,113.321,182.24,110.406,182.24z M139.97,114.301
		c0-4.028-0.833-7.467-2.498-10.316c-1.666-2.846-3.715-5.174-6.142-6.981c-2.43-1.804-5.068-3.126-7.911-3.959
		c-2.846-0.834-5.38-1.25-7.599-1.25c-2.778,0-5.484,0.417-8.119,1.25c-2.638,0.833-5.205,1.807-7.703,2.917l-1.25,46.265
		c3.191,0,7.147-0.277,11.867-0.834c4.717-0.553,9.265-1.771,13.637-3.647c4.372-1.875,8.083-4.653,11.138-8.336
		C138.441,125.73,139.97,120.693,139.97,114.301z"/>
	<path fill="#FCB24D" d="M452.049,86.792l-95.352,120.456h87.857l2.914,88.362l-185.707,7.503l-8.328-81.693L362.11,88.042
		l-107.842,7.502l-0.833-83.777h194.867L452.049,86.792z"/>
	<path fill="#FCB24D" d="M663.366,86.792l-95.354,120.456h87.857l2.916,88.362l-185.709,7.503l-8.326-81.693L573.426,88.042
		l-107.844,7.502l-0.832-83.777h194.867L663.366,86.792z"/>
</g>
</svg>
